<svg width="235" height="204" fill="none" xmlns="http://www.w3.org/2000/svg"><path opacity=".3" fill-rule="evenodd" clip-rule="evenodd" d="M112.029.008c23.415.527 31.902 27.424 51.325 38.523 20.61 11.776 52.568 9.574 64.88 27.877 12.592 18.718 5.412 42.885-3.761 62.981-8.826 19.335-27.494 32.974-46.156 46.374-20.259 14.546-34.963 26.007-61.445 27.607-27.14 1.641-60.4-1.837-78.375-19.155-16.66-16.051 17.685-43.307 11.142-63.956-6.046-19.081-55.826-33.64-47.96-52.238 7.872-18.616 38.14-20.215 57.008-31.845C77.564 24.541 88.697-.517 112.029.008Z" fill="#E3E3E3"/><path d="m83.856 59.645-15.542 95.753-2.02 12.536 103.658-.632c4.653-.053 8.78-5.004 10.273-12.325l18.396-90.382c1.142-5.583-1.361-11.376-4.873-11.376l-104.887.158c-2.371-.053-4.39 2.528-5.005 6.267Z" fill="#C6C6C6"/><path d="M103.31 53.418h59.033l5.677 114.646h-59.034L103.31 53.418Z" fill="#BCBCBC"/><path d="M159.985 148.919 149.009 42.842c-.439-4.371-3.336-7.584-6.761-7.584l-24.059.105c-1.8 0-3.469.895-4.742 2.528l-11.415 14.59-66.91.421c-4.083 0-7.244 4.688-6.673 9.902l10.185 98.071c.44 4.319 3.337 7.585 6.718 7.585l116.609-.263c12.996.316 14.225-4.267 14.225-4.267-14.883 3.845-16.201-15.011-16.201-15.011Z" fill="#E4E4E4"/><path opacity=".3" fill-rule="evenodd" clip-rule="evenodd" d="M163.909 160.121H38.556l.078.756c.44 4.319 3.337 7.584 6.718 7.584l116.609-.263c12.996.316 14.225-4.266 14.225-4.266-6.074 1.569-9.889-.643-12.277-3.811Z" fill="#C4C4C4"/><path fill="#A7A7A7" d="m148.479 142.715 7.023-7.022 13.968 13.965-7.023 7.023z"/><path fill="#AFAFAF" d="m156.343 150.582 7.023-7.023 6.103 6.102-7.023 7.023z"/><ellipse cx="127.15" cy="113.579" rx="35.193" ry="35.188" fill="#E7E7E7"/><ellipse cx="130.556" cy="116.986" rx="31.787" ry="31.783" fill="#F0F0F0"/><path fill-rule="evenodd" clip-rule="evenodd" d="M127.709 146.127c18.336 0 33.2-14.862 33.2-33.195s-14.864-33.195-33.2-33.195c-18.336 0-33.2 14.862-33.2 33.195s14.864 33.195 33.2 33.195Zm0 8.202c22.866 0 41.403-18.534 41.403-41.397s-18.537-41.397-41.403-41.397-41.402 18.534-41.402 41.397 18.536 41.397 41.402 41.397Z" fill="#FCFCFC"/><path d="m160.354 157.5 9.933-9.931 35.245 35.24a4 4 0 0 1 0 5.657l-4.275 4.274a4 4 0 0 1-5.657 0l-35.246-35.24Z" fill="#A4A4A4"/><path d="m192.025 189.164 9.933-9.931 3.574 3.574a4 4 0 0 1 0 5.656l-4.275 4.275a4 4 0 0 1-5.657 0l-3.575-3.574Z" fill="#9D9D9D"/><g opacity=".5" fill="#E3E3E3"><path d="M12.488 64.204 0 56.826v14.756l12.488-7.378ZM199.807 146.5l7.947 6.07-3.035 9.822h-9.823l-3.036-9.822 7.947-6.07Z"/><path fill-rule="evenodd" clip-rule="evenodd" d="M228.189 146.501a3.405 3.405 0 1 0 0-6.811 3.405 3.405 0 0 0 0 6.811Zm0 3.405a6.81 6.81 0 1 0-6.812-6.81c0 3.761 3.05 6.81 6.812 6.81Z"/><path d="M28.381 40.367a3.973 3.973 0 1 1-7.946 0 3.973 3.973 0 0 1 7.946 0Z"/><path fill-rule="evenodd" clip-rule="evenodd" d="M206.05 110.176c.941 0 1.703.699 1.703 1.561v9.364c0 .862-.762 1.561-1.703 1.561-.94 0-1.703-.699-1.703-1.561v-9.364c0-.862.763-1.561 1.703-1.561Z"/><path fill-rule="evenodd" clip-rule="evenodd" d="M212.295 116.418c0 .941-.699 1.703-1.561 1.703h-9.366c-.862 0-1.561-.762-1.561-1.703 0-.94.699-1.702 1.561-1.702h9.366c.862 0 1.561.762 1.561 1.702Z"/></g><path d="M132.454 126.018h-7.198a153.062 153.062 0 0 1-.028-1.895c0-2.338.386-4.262 1.157-5.77.772-1.509 2.315-3.206 4.629-5.091 2.315-1.886 3.698-3.121 4.15-3.706.696-.924 1.044-1.942 1.044-3.054 0-1.547-.621-2.866-1.863-3.96-1.223-1.113-2.879-1.669-4.968-1.669-2.013 0-3.697.575-5.052 1.725-1.355 1.151-2.286 2.904-2.795 5.261l-7.282-.905c.207-3.375 1.637-6.241 4.29-8.598 2.673-2.357 6.173-3.536 10.501-3.536 4.553 0 8.176 1.198 10.867 3.592 2.691 2.376 4.036 5.148 4.036 8.316 0 1.754-.499 3.413-1.496 4.978-.978 1.565-3.086 3.696-6.323 6.392-1.674 1.396-2.719 2.517-3.133 3.366-.395.848-.574 2.366-.536 4.554Zm-7.198 10.691v-7.948h7.932v7.948h-7.932Z" fill="#D2D2D2"/></svg>